<?xml version="1.0" standalone="no"?>
<!DOCTYPE svg PUBLIC "-//W3C//DTD SVG 20010904//EN"
 "http://www.w3.org/TR/2001/REC-SVG-20010904/DTD/svg10.dtd">
<svg version="1.0" xmlns="http://www.w3.org/2000/svg"
 width="250.000000pt" height="200.000000pt" viewBox="0 0 250.000000 200.000000"
 preserveAspectRatio="xMidYMid meet">

<g transform="translate(0.000000,200.000000) scale(0.100000,-0.100000)"
fill="#000000" stroke="none">
<path d="M1063 1969 c-46 -29 -94 -114 -167 -296 -35 -87 -101 -241 -145 -342
-45 -102 -81 -189 -81 -193 0 -4 13 -8 29 -8 32 0 22 -21 221 450 62 146 114
268 117 273 3 5 601 -388 651 -428 2 -2 -24 -67 -57 -144 -34 -78 -61 -144
-61 -146 0 -3 15 -5 33 -5 32 0 32 1 90 143 51 127 57 149 57 214 0 89 -2 92
-170 209 -450 314 -452 315 -517 273z"/>
<path d="M140 1058 c-37 -40 -22 -78 43 -106 32 -14 35 -37 6 -52 -16 -9 -28
-9 -50 1 -32 13 -45 8 -36 -15 8 -20 70 -31 96 -17 31 17 54 57 46 81 -4 11
-24 29 -46 41 -53 27 -50 53 6 55 58 2 59 3 45 19 -19 23 -85 19 -110 -7z"/>
<path d="M355 1048 c-21 -127 -25 -172 -16 -181 16 -16 31 3 31 42 0 27 7 46
25 65 35 38 47 25 43 -48 -2 -49 0 -61 12 -61 21 0 37 119 20 140 -14 17 -43
19 -70 5 -16 -9 -18 -6 -13 30 5 32 2 40 -10 40 -10 0 -18 -12 -22 -32z"/>
<path d="M1157 1073 c-4 -3 -7 -17 -7 -30 0 -20 -5 -23 -35 -23 -54 0 -87 -40
-83 -98 4 -58 26 -74 67 -50 27 15 30 15 36 0 12 -31 28 7 41 95 8 48 14 94
14 101 0 13 -22 17 -33 5z m-17 -110 c0 -27 -44 -77 -63 -70 -23 7 -20 55 7
82 29 29 56 24 56 -12z"/>
<path d="M1295 1070 c-4 -7 -3 -16 3 -22 14 -14 45 -2 40 15 -6 16 -34 21 -43
7z"/>
<path d="M1540 1061 c0 -37 -10 -48 -40 -43 -54 8 -106 -71 -81 -124 15 -33
39 -41 72 -22 25 15 28 15 34 0 12 -31 25 5 38 101 8 53 12 99 9 102 -12 12
-32 3 -32 -14z m-21 -119 c-11 -33 -42 -57 -59 -47 -14 9 -12 58 3 77 34 43
74 21 56 -30z"/>
<path d="M586 989 c-32 -38 -33 -79 -3 -107 32 -30 63 -28 98 7 33 34 40 89
13 115 -27 27 -79 20 -108 -15z m87 -13 c9 -23 -5 -67 -25 -77 -31 -16 -48 -4
-48 35 0 51 57 84 73 42z"/>
<path d="M802 938 c-7 -46 -12 -93 -12 -105 0 -34 27 -28 34 8 5 24 10 29 25
24 42 -13 101 45 101 100 0 48 -55 74 -89 43 -11 -10 -14 -10 -18 0 -3 6 -10
12 -17 12 -9 0 -17 -29 -24 -82z m108 17 c0 -39 -34 -70 -64 -59 -34 13 6 94
46 94 14 0 18 -8 18 -35z"/>
<path d="M1285 950 c-8 -84 -8 -85 7 -85 12 0 19 26 32 113 5 37 4 42 -13 42
-16 0 -20 -10 -26 -70z"/>
<path d="M1692 1013 c-18 -7 -42 -57 -42 -88 0 -32 33 -65 64 -65 14 0 38 13
55 31 55 54 34 130 -35 128 -16 0 -35 -3 -42 -6z m68 -58 c0 -51 -39 -82 -68
-53 -19 19 -14 47 12 73 32 32 56 23 56 -20z"/>
<path d="M1895 978 c-12 -82 -11 -113 5 -113 10 0 17 14 21 40 7 54 25 85 50
85 19 0 21 -5 17 -62 -2 -51 0 -63 12 -63 18 0 36 90 26 129 -7 28 -40 35 -77
16 -13 -7 -19 -7 -19 0 0 5 -6 10 -14 10 -10 0 -17 -15 -21 -42z"/>
<path d="M2136 998 c-9 -12 -16 -30 -16 -40 0 -20 44 -53 60 -43 5 3 10 1 10
-4 0 -6 -13 -11 -30 -11 -35 0 -72 -32 -64 -55 16 -40 80 -46 121 -11 25 22
26 26 15 51 -10 22 -10 34 0 64 7 20 19 40 25 44 27 17 10 27 -46 27 -51 0
-62 -3 -75 -22z m74 -23 c0 -7 -7 -18 -16 -25 -12 -11 -18 -11 -30 2 -14 14
-14 17 1 31 17 18 45 13 45 -8z m-10 -120 c-13 -16 -70 -21 -70 -7 0 16 13 22
48 22 29 0 33 -2 22 -15z"/>
<path d="M741 706 c-46 -101 -54 -134 -48 -193 9 -89 -7 -74 371 -336 94 -65
183 -123 199 -130 15 -6 27 -15 27 -19 0 -4 16 -8 35 -8 19 0 35 5 35 10 0 6
6 10 13 10 24 0 55 44 102 145 109 234 245 544 245 560 0 12 -7 15 -27 13 -31
-3 -22 15 -198 -403 -54 -126 -99 -231 -100 -233 -1 -1 -52 33 -113 75 -61 43
-155 108 -209 145 -216 147 -308 210 -316 217 -4 4 11 52 33 106 22 54 40 100
40 102 0 1 -13 3 -30 3 -27 0 -33 -6 -59 -64z m304 -402 c42 -29 65 -52 65
-65 0 -10 -5 -19 -11 -19 -12 0 -125 76 -134 90 -7 11 0 40 9 40 3 0 35 -21
71 -46z"/>
</g>
</svg>
